#!OML:ASF X:\für Bonn\!DataBase\2005_08_11_Bastian_Final\c3d\Bastian.ASF
:FULLY-SPECIFIED
:DEGREES
257
root 1.77816 15.1832 -8.87719 546.781 -150.962 -108.175
lowerback 52.4233 -9.71145 15.5452
upperback 9.13903 -1.66084 6.69592
thorax -9.90386 -0.74645 1.31686
lowerneck -33.2389 -2.68596 4.13642
upperneck -7.18992 -5.48772 -5.75443
head 2.29181 -3.56401 -3.11552
rclavicle -2.22639e-014 1.43125e-013
rhumerus 53.7669 -15.8542 -24.9213
rradius 42.499
rwrist -119.318
rhand -56.8145 -67.2387
rfingers 7.12502
rthumb -29.1144 -265.017
lclavicle -2.22639e-014 1.43125e-013
lhumerus 8.35908 -6.32128 -37.6449
lradius 42.0201
lwrist 103.364
lhand -37.4435 -21.4938
lfingers 7.12502
lthumb -10.5025 8.22385
rfemur -58.5734 -17.2804 -21.7303
rtibia 69.0983
rfoot -28.0339 -17.9645
rtoes 49.8303
lfemur -1.47564 11.1746 20.3689
ltibia 59.7295
lfoot -21.9067 0.92079
ltoes -13.0082
258
root 1.87583 15.0506 -9.07171 546.809 -151.894 -109.965
lowerback 52.9885 -9.71381 15.7004
upperback 9.31635 -1.47059 6.75407
thorax -9.73354 -0.655493 1.26874
lowerneck -33.7885 -2.9894 3.68849
upperneck -6.42915 -5.69222 -5.82734
head 2.55583 -3.65688 -3.12123
rclavicle 6.99722e-014 -6.67916e-014
rhumerus 53.355 -16.0903 -26.3048
rradius 42.285
rwrist -118.778
rhand -56.3871 -67.3325
rfingers 7.12502
rthumb -28.7061 -264.854
lclavicle 6.99722e-014 -6.67916e-014
lhumerus 6.82132 -8.85325 -36.5426
lradius 41.0382
lwrist 106.769
lhand -37.9455 -20.5593
lfingers 7.12502
lthumb -10.9867 9.13317
rfemur -59.308 -17.6094 -19.842
rtibia 70.6247
rfoot -28.9023 -16.7257
rtoes 51.0703
lfemur -2.84349 12.8865 19.329
ltibia 63.1524
lfoot -21.4806 -0.219353
ltoes -16.424
259
root 1.96779 14.9324 -9.25689 546.972 -152.771 -111.8
lowerback 53.5289 -9.78563 16.0485
upperback 9.39318 -1.25328 6.78319
thorax -9.65356 -0.561997 1.10563
lowerneck -34.282 -3.32639 3.10946
upperneck -5.69073 -5.87909 -5.87635
head 2.85095 -3.73816 -3.09495
rclavicle 7.31528e-014 -1.36764e-013
rhumerus 52.8115 -16.1812 -27.2206
rradius 42.0821
rwrist -118.601
rhand -55.9918 -67.1268
rfingers 7.12502
rthumb -28.3284 -264.996
lclavicle 7.31528e-014 -1.36764e-013
lhumerus 5.12484 -11.413 -35.2954
lradius 40.0766
lwrist 109.906
lhand -38.3852 -19.6049
lfingers 7.12502
lthumb -11.4108 10.0646
rfemur -59.9991 -17.8943 -17.8859
rtibia 72.1548
rfoot -29.7438 -15.5572
rtoes 52.7443
lfemur -4.20272 14.6509 18.0185
ltibia 66.3317
lfoot -21.0774 -1.67073
ltoes -18.1671
260
root 1.98891 14.8674 -9.42164 547.243 -153.601 -113.609
lowerback 54.0314 -9.92801 16.5435
upperback 9.40644 -1.04223 6.75439
thorax -9.62315 -0.474525 0.827073
lowerneck -34.9139 -3.69111 2.42569
upperneck -4.85187 -6.05102 -5.8722
head 3.19926 -3.81189 -3.04216
rclavicle 5.40694e-014 3.18055e-015
rhumerus 52.3013 -16.2775 -28.0344
rradius 41.8115
rwrist -118.455
rhand -55.5366 -66.8808
rfingers 7.12502
rthumb -27.8933 -265.171
lclavicle 5.40694e-014 3.18055e-015
lhumerus 3.16825 -14.0249 -33.9436
lradius 39.2279
lwrist 112.71
lhand -38.8135 -18.5333
lfingers 7.12502
lthumb -11.8238 11.113
rfemur -60.2744 -17.8361 -15.9192
rtibia 73.3145
rfoot -30.6521 -14.8127
rtoes 54.5595
lfemur -5.5422 16.5067 16.0559
ltibia 68.9484
lfoot -20.3052 -2.83733
ltoes -21.6173
261
root 2.05747 14.807 -9.5963 547.653 -154.24 -115.413
lowerback 54.64 -10.0796 17.1307
upperback 9.29383 -0.757754 6.66102
thorax -9.72706 -0.36878 0.424293
lowerneck -35.5925 -4.08379 1.60574
upperneck -3.98575 -6.19288 -5.79395
head 3.56963 -3.86772 -2.94568
rclavicle -3.18055e-015 7.31528e-014
rhumerus 51.7819 -16.3086 -28.6679
rradius 41.5145
rwrist -118.388
rhand -55.0755 -66.3951
rfingers 7.12502
rthumb -27.4523 -265.585
lclavicle -3.18055e-015 7.31528e-014
lhumerus 0.98994 -16.6334 -32.4061
lradius 38.4815
lwrist 114.955
lhand -39.2307 -17.3187
lfingers 7.12502
lthumb -12.2261 12.304
rfemur -60.9603 -17.6565 -13.9382
rtibia 74.377
rfoot -31.0815 -14.8516
rtoes 55.5265
lfemur -6.92445 18.7498 14.036
ltibia 71.3092
lfoot -19.2287 -4.46404
ltoes -24.9674
